{
  "accessors": [
    {
      "bufferView": 2,
      "componentType": 5126,
      "count": 2490,
      "max": [
        2.731518030166626,
        6.447554111480713,
        1.6322203874588013
      ],
      "min": [
        -2.731518030166626,
        0.03319936990737915,
        -3.3795604705810547
      ],
      "type": "VEC3"
    },
    {
      "bufferView": 2,
      "byteOffset": 29880,
      "componentType": 5126,
      "count": 2490,
      "max": [
        1.0,
        1.0,
        1.0
      ],
      "min": [
        -1.0,
        -1.0,
        -1.0
      ],
      "type": "VEC3"
    },
    {
      "bufferView": 1,
      "componentType": 5126,
      "count": 2490,
      "max": [
        0.9950169920921326,
        0.9968568086624146
      ],
      "min": [
        0.004762113094329834,
        0.009077679365873337
      ],
      "type": "VEC2"
    },
    {
      "bufferView": 0,
      "componentType": 5125,
      "count": 4944,
      "type": "SCALAR"
    }
  ],
  "asset": {
    "extras": {
      "author": "Victoria Reinhold (https://sketchfab.com/reinhold)",
      "license": "CC-BY-4.0 (http://creativecommons.org/licenses/by/4.0/)",
      "source": "https://sketchfab.com/3d-models/dance-dance-revolution-80e09c2daea44bf38f22545b04532d74",
      "title": "Dance Dance Revolution"
    },
    "generator": "Sketchfab-12.65.0",
    "version": "2.0"
  },
  "bufferViews": [
    {
      "buffer": 0,
      "byteLength": 19776,
      "name": "floatBufferViews",
      "target": 34963
    },
    {
      "buffer": 0,
      "byteLength": 19920,
      "byteOffset": 19776,
      "byteStride": 8,
      "name": "floatBufferViews",
      "target": 34962
    },
    {
      "buffer": 0,
      "byteLength": 59760,
      "byteOffset": 39696,
      "byteStride": 12,
      "name": "floatBufferViews",
      "target": 34962
    }
  ],
  "buffers": [
    {
      "byteLength": 99456,
      "uri": "scene.bin"
    }
  ],
  "images": [
    {
      "uri": "textures/lambert3_baseColor.png"
    },
    {
      "uri": "textures/lambert3_emissive.png"
    }
  ],
  "materials": [
    {
      "doubleSided": true,
      "emissiveFactor": [
        1.0,
        1.0,
        1.0
      ],
      "emissiveTexture": {
        "index": 1
      },
      "name": "lambert3",
      "pbrMetallicRoughness": {
        "baseColorTexture": {
          "index": 0
        },
        "metallicFactor": 0.110757585,
        "roughnessFactor": 0.4043939301
      }
    }
  ],
  "meshes": [
    {
      "name": "pCylinder13_lambert3_0",
      "primitives": [
        {
          "attributes": {
            "NORMAL": 1,
            "POSITION": 0,
            "TEXCOORD_0": 2
          },
          "indices": 3,
          "material": 0,
          "mode": 4
        }
      ]
    }
  ],
  "nodes": [
    {
      "children": [
        1
      ],
      "matrix": [
        1.0,
        0.0,
        0.0,
        0.0,
        0.0,
        2.220446049250313e-16,
        -1.0,
        0.0,
        0.0,
        1.0,
        2.220446049250313e-16,
        0.0,
        0.0,
        0.0,
        0.0,
        1.0
      ],
      "name": "Sketchfab_model"
    },
    {
      "children": [
        2
      ],
      "matrix": [
        1.0,
        0.0,
        0.0,
        0.0,
        0.0,
        0.0,
        1.0,
        0.0,
        0.0,
        -1.0,
        0.0,
        0.0,
        0.0,
        0.0,
        0.0,
        1.0
      ],
      "name": "ba75c1f377a044eab80facf9c2bfa8ea.fbx"
    },
    {
      "children": [
        3
      ],
      "name": "RootNode"
    },
    {
      "children": [
        4
      ],
      "matrix": [
        1.0,
        0.0,
        0.0,
        0.0,
        0.0,
        1.0,
        0.0,
        0.0,
        0.0,
        0.0,
        1.0,
        0.0,
        16.640817642211914,
        0.0,
        0.0,
        1.0
      ],
      "name": "pCylinder13"
    },
    {
      "mesh": 0,
      "name": "pCylinder13_lambert3_0"
    }
  ],
  "samplers": [
    {
      "magFilter": 9729,
      "minFilter": 9987,
      "wrapS": 10497,
      "wrapT": 10497
    }
  ],
  "scene": 0,
  "scenes": [
    {
      "name": "Sketchfab_Scene",
      "nodes": [
        0
      ]
    }
  ],
  "textures": [
    {
      "sampler": 0,
      "source": 0
    },
    {
      "sampler": 0,
      "source": 1
    }
  ]
}
