{
  "accessors": [
    {
      "bufferView": 3,
      "componentType": 5126,
      "count": 804,
      "max": [
        5.463414192199707,
        42.49345779418945,
        6.662487030029297
      ],
      "min": [
        -5.610729217529297,
        37.112274169921875,
        1.2813329696655273
      ],
      "type": "VEC3"
    },
    {
      "bufferView": 3,
      "byteOffset": 9648,
      "componentType": 5126,
      "count": 804,
      "max": [
        0.9968888759613037,
        0.9969115853309631,
        1.0
      ],
      "min": [
        -0.9969155788421631,
        -0.9969040751457214,
        -1.0
      ],
      "type": "VEC3"
    },
    {
      "bufferView": 4,
      "componentType": 5126,
      "count": 804,
      "max": [
        0.8633712530136108,
        0.7335072755813599,
        0.9968178868293762,
        1.0
      ],
      "min": [
        -0.8508670926094055,
        -0.07265084236860275,
        -0.9969136714935303,
        1.0
      ],
      "type": "VEC4"
    },
    {
      "bufferView": 2,
      "componentType": 5126,
      "count": 804,
      "max": [
        0.9965819716453552,
        0.9968029856681824
      ],
      "min": [
        0.0031969998963177204,
        0.0034179999493062496
      ],
      "type": "VEC2"
    },
    {
      "bufferView": 1,
      "componentType": 5125,
      "count": 4560,
      "type": "SCALAR"
    },
    {
      "bufferView": 3,
      "byteOffset": 19296,
      "componentType": 5126,
      "count": 10583,
      "max": [
        33.64716720581055,
        64.73529052734375,
        11.160618782043457
      ],
      "min": [
        -34.559268951416016,
        0.010580999776721,
        -14.063581466674805
      ],
      "type": "VEC3"
    },
    {
      "bufferView": 3,
      "byteOffset": 146292,
      "componentType": 5126,
      "count": 10583,
      "max": [
        1.0,
        1.0,
        1.0
      ],
      "min": [
        -1.0,
        -1.0,
        -1.0
      ],
      "type": "VEC3"
    },
    {
      "bufferView": 4,
      "byteOffset": 12864,
      "componentType": 5126,
      "count": 10583,
      "max": [
        1.0,
        1.0,
        1.0,
        1.0
      ],
      "min": [
        -1.0,
        -1.0,
        -1.0,
        -1.0
      ],
      "type": "VEC4"
    },
    {
      "bufferView": 2,
      "byteOffset": 6432,
      "componentType": 5126,
      "count": 10583,
      "max": [
        0.9995120167732239,
        0.9899219870567322
      ],
      "min": [
        0.00024399999529123306,
        0.0004879999905824661
      ],
      "type": "VEC2"
    },
    {
      "bufferView": 1,
      "byteOffset": 18240,
      "componentType": 5125,
      "count": 50214,
      "type": "SCALAR"
    },
    {
      "bufferView": 5,
      "componentType": 5126,
      "count": 32,
      "max": [
        1.0,
        1.0,
        4.577386789605953e-06,
        0.0,
        1.0,
        1.0,
        0.7652482390403748,
        0.0,
        0.0540270060300827,
        0.76524817943573,
        1.0,
        0.0,
        25.677875518798828,
        23.554840087890625,
        27.998001098632813,
        1.0
      ],
      "min": [
        -1.0,
        -0.046237267553806305,
        -0.053391341120004654,
        0.0,
        -1.0,
        -1.0,
        -0.7652298212051392,
        0.0,
        -6.361804025800666e-06,
        -0.7652298212051392,
        -1.0,
        0.0,
        -46.837890625,
        -56.027503967285156,
        -5.565118789672852,
        1.0
      ],
      "type": "MAT4"
    },
    {
      "bufferView": 0,
      "componentType": 5123,
      "count": 804,
      "type": "VEC4"
    },
    {
      "bufferView": 4,
      "byteOffset": 182192,
      "componentType": 5126,
      "count": 804,
      "max": [
        1.0,
        0.0,
        0.0,
        0.0
      ],
      "min": [
        1.0,
        0.0,
        0.0,
        0.0
      ],
      "type": "VEC4"
    },
    {
      "bufferView": 0,
      "byteOffset": 6432,
      "componentType": 5123,
      "count": 10583,
      "type": "VEC4"
    },
    {
      "bufferView": 4,
      "byteOffset": 195056,
      "componentType": 5126,
      "count": 10583,
      "max": [
        1.0,
        0.49803900718688965,
        0.0,
        0.0
      ],
      "min": [
        0.5019609928131104,
        0.0,
        0.0,
        0.0
      ],
      "type": "VEC4"
    }
  ],
  "asset": {
    "extras": {
      "author": "MrUnknown (https://sketchfab.com/MrUnknownP3dAnimations)",
      "license": "CC-BY-4.0 (http://creativecommons.org/licenses/by/4.0/)",
      "source": "https://sketchfab.com/3d-models/bb-five-nights-at-freddys-help-wanted-b989200bdc954fd0af18c22f72db0bc9",
      "title": "BB Five Night's At Freddy's: Help Wanted"
    },
    "generator": "Sketchfab-13.42.0",
    "version": "2.0"
  },
  "bufferViews": [
    {
      "buffer": 0,
      "byteLength": 91096,
      "byteStride": 8,
      "name": "shortBufferViews",
      "target": 34962
    },
    {
      "buffer": 0,
      "byteLength": 219096,
      "byteOffset": 91096,
      "name": "floatBufferViews",
      "target": 34963
    },
    {
      "buffer": 0,
      "byteLength": 91096,
      "byteOffset": 310192,
      "byteStride": 8,
      "name": "floatBufferViews",
      "target": 34962
    },
    {
      "buffer": 0,
      "byteLength": 273288,
      "byteOffset": 401288,
      "byteStride": 12,
      "name": "floatBufferViews",
      "target": 34962
    },
    {
      "buffer": 0,
      "byteLength": 364384,
      "byteOffset": 674576,
      "byteStride": 16,
      "name": "floatBufferViews",
      "target": 34962
    },
    {
      "buffer": 0,
      "byteLength": 2048,
      "byteOffset": 1038960,
      "name": "floatBufferViews"
    }
  ],
  "buffers": [
    {
      "byteLength": 1041008,
      "uri": "e.bin"
    }
  ],
  "images": [
    {
      "uri": "textures/Eyes_baseColor.png"
    },
    {
      "uri": "textures/Eyes_metallicRoughness.png"
    },
    {
      "uri": "textures/Eyes_normal.png"
    },
    {
      "uri": "textures/material_baseColor.png"
    },
    {
      "uri": "textures/material_metallicRoughness.png"
    }
  ],
  "materials": [
    {
      "doubleSided": true,
      "name": "Eyes",
      "normalTexture": {
        "index": 2,
        "scale": 0.0
      },
      "pbrMetallicRoughness": {
        "baseColorTexture": {
          "index": 0
        },
        "metallicFactor": 0.0,
        "metallicRoughnessTexture": {
          "index": 1
        }
      }
    },
    {
      "doubleSided": true,
      "name": "material",
      "normalTexture": {
        "index": 2
      },
      "pbrMetallicRoughness": {
        "baseColorTexture": {
          "index": 3
        },
        "metallicFactor": 0.0,
        "metallicRoughnessTexture": {
          "index": 4
        },
        "roughnessFactor": 0.10819080591483707
      }
    }
  ],
  "meshes": [
    {
      "name": "Object_0",
      "primitives": [
        {
          "attributes": {
            "JOINTS_0": 11,
            "NORMAL": 1,
            "POSITION": 0,
            "TANGENT": 2,
            "TEXCOORD_0": 3,
            "TEXCOORD_1": 3,
            "TEXCOORD_2": 3,
            "TEXCOORD_3": 3,
            "WEIGHTS_0": 12
          },
          "indices": 4,
          "material": 0,
          "mode": 4
        }
      ]
    },
    {
      "name": "Object_1",
      "primitives": [
        {
          "attributes": {
            "JOINTS_0": 13,
            "NORMAL": 6,
            "POSITION": 5,
            "TANGENT": 7,
            "TEXCOORD_0": 8,
            "TEXCOORD_1": 8,
            "TEXCOORD_2": 8,
            "TEXCOORD_3": 8,
            "WEIGHTS_0": 14
          },
          "indices": 9,
          "material": 1,
          "mode": 4
        }
      ]
    }
  ],
  "nodes": [
    {
      "children": [
        1
      ],
      "matrix": [
        1.0,
        0.0,
        0.0,
        0.0,
        0.0,
        2.220446049250313e-16,
        -1.0,
        0.0,
        0.0,
        1.0,
        2.220446049250313e-16,
        0.0,
        0.0,
        0.0,
        0.0,
        1.0
      ],
      "name": "Sketchfab_model"
    },
    {
      "children": [
        2
      ],
      "name": "root"
    },
    {
      "children": [
        3
      ],
      "matrix": [
        1.0,
        0.0,
        0.0,
        0.0,
        0.0,
        2.220446049250313e-16,
        1.0,
        0.0,
        0.0,
        -1.0,
        2.220446049250313e-16,
        0.0,
        0.0,
        0.0,
        0.0,
        1.0
      ],
      "name": "GLTF_SceneRootNode"
    },
    {
      "children": [
        4
      ],
      "name": "BB_skeleton_32"
    },
    {
      "children": [
        5,
        7,
        8,
        6
      ],
      "name": "GLTF_created_0"
    },
    {
      "children": [
        9
      ],
      "name": "GLTF_created_0_rootJoint"
    },
    {
      "name": "BB_31"
    },
    {
      "mesh": 0,
      "name": "Object_7",
      "skin": 0
    },
    {
      "mesh": 1,
      "name": "Object_8",
      "skin": 0
    },
    {
      "children": [
        10
      ],
      "name": "C_World_jnt_30",
      "rotation": [
        1.842546225816477e-06,
        0.0,
        0.0,
        1.0
      ]
    },
    {
      "children": [
        11,
        14,
        18,
        31,
        37
      ],
      "name": "bip_pelvis_29",
      "translation": [
        0.0,
        20.671924591064453,
        -3.1821205615997314
      ]
    },
    {
      "children": [
        12
      ],
      "name": "bip_hip_L_2",
      "rotation": [
        -1.6292068494294654e-07,
        -6.835319211648751e-32,
        1.0,
        2.9446714164271803e-14
      ],
      "translation": [
        4.992000102996826,
        -2.9522268772125244,
        0.007086966186761856
      ]
    },
    {
      "children": [
        13
      ],
      "name": "bip_knee_L_1",
      "rotation": [
        -8.033096321469202e-08,
        -3.316084757898352e-07,
        -1.2852900681536994e-06,
        1.0
      ],
      "translation": [
        1.3770924851996824e-05,
        7.58964204788208,
        0.4242441654205322
      ]
    },
    {
      "name": "bip_foot_L_0",
      "rotation": [
        0.4220590591430664,
        -8.369953548026388e-07,
        -1.0371558119004476e-06,
        0.9065683484077454
      ],
      "scale": [
        1.0,
        0.9999999403953552,
        0.9999999403953552
      ],
      "translation": [
        -4.489259481488261e-06,
        6.438681125640869,
        -0.5204290747642517
      ]
    },
    {
      "children": [
        15
      ],
      "name": "bip_upperArm_L_6",
      "rotation": [
        9.42685176141822e-07,
        9.426852329852409e-07,
        -0.7071068286895752,
        0.7071068286895752
      ],
      "translation": [
        7.31220006942749,
        5.005960941314697,
        -0.2828468680381775
      ]
    },
    {
      "children": [
        16
      ],
      "name": "bip_lowerArm_L_5",
      "translation": [
        2.4539433070458472e-05,
        7.482758045196533,
        -0.39243409037590027
      ]
    },
    {
      "children": [
        17
      ],
      "name": "bip_hand_L_4",
      "translation": [
        2.967225191241596e-05,
        8.471437454223633,
        0.39243200421333313
      ]
    },
    {
      "name": "Sign_jnt_3",
      "translation": [
        -2.752674845396541e-06,
        0.0,
        1.6327248886227608e-08
      ]
    },
    {
      "children": [
        19
      ],
      "name": "bip_neck_19",
      "rotation": [
        9.058800287675695e-08,
        0.0,
        0.0,
        1.0
      ],
      "translation": [
        0.0,
        11.20040512084961,
        1.8074206309393048e-07
      ]
    },
    {
      "children": [
        20,
        21,
        30
      ],
      "name": "bip_head_18",
      "translation": [
        -0.08879700303077698,
        7.9219584465026855,
        0.07163748890161514
      ]
    },
    {
      "name": "bip_Copter_7",
      "rotation": [
        -0.08526498824357986,
        0.0,
        0.0,
        0.996358335018158
      ],
      "scale": [
        1.0,
        1.0,
        0.9999999403953552
      ],
      "translation": [
        -4.1991472244262695e-05,
        16.36412811279297,
        -0.9248860478401184
      ]
    },
    {
      "children": [
        22,
        26
      ],
      "name": "bip_eye_ALL_16",
      "translation": [
        0.0,
        0.0005725733353756368,
        7.141521453857422
      ]
    },
    {
      "children": [
        23,
        24,
        25
      ],
      "name": "L_EyeStuffALL_jnt_11",
      "rotation": [
        0.006946709472686052,
        -0.026871439069509506,
        0.022946851328015327,
        0.9993513226509094
      ],
      "scale": [
        1.0000001192092896,
        1.0000001192092896,
        1.0000001192092896
      ],
      "translation": [
        2.3563005924224854,
        -0.06279636174440384,
        0.20395411550998688
      ]
    },
    {
      "name": "bip_eye_L_8",
      "rotation": [
        -0.006832979619503021,
        0.02690061181783676,
        -0.01872009038925171,
        0.9994394779205322
      ],
      "scale": [
        1.0,
        0.9999999403953552,
        0.9999999403953552
      ],
      "translation": [
        0.49358367919921875,
        0.044226497411727905,
        -0.2789645791053772
      ]
    },
    {
      "name": "bip_eyeLid_0_L_9",
      "rotation": [
        -0.006832979619503021,
        0.02690061181783676,
        -0.01872009038925171,
        0.9994394779205322
      ],
      "scale": [
        1.0,
        0.9999999403953552,
        0.9999999403953552
      ],
      "translation": [
        0.49358367919921875,
        0.044226497411727905,
        -0.2789645791053772
      ]
    },
    {
      "name": "bip_eyeLid_1_L_10",
      "rotation": [
        -0.006832979619503021,
        0.02690061181783676,
        -0.01872009038925171,
        0.9994394779205322
      ],
      "scale": [
        1.0,
        0.9999999403953552,
        0.9999999403953552
      ],
      "translation": [
        0.49358367919921875,
        0.044226497411727905,
        -0.2789645791053772
      ]
    },
    {
      "children": [
        27,
        28,
        29
      ],
      "name": "R_EyeStuffARR_jnt_15",
      "rotation": [
        0.007742391899228096,
        -0.026654060930013657,
        -0.006779517978429794,
        0.9995917677879333
      ],
      "scale": [
        0.9999999403953552,
        1.0000001192092896,
        1.0
      ],
      "translation": [
        -3.327131509780884,
        -0.14310845732688904,
        -0.11295745521783829
      ]
    },
    {
      "name": "bip_eye_R_12",
      "rotation": [
        -0.0076302289962768555,
        0.026687074452638626,
        0.011007669381797314,
        0.9995542168617249
      ],
      "scale": [
        0.9999999403953552,
        1.0,
        1.0
      ],
      "translation": [
        0.4958162009716034,
        0.15846708416938782,
        0.024993419647216797
      ]
    },
    {
      "name": "bip_eyeLid_0_R_13",
      "rotation": [
        -0.0076302289962768555,
        0.026687074452638626,
        0.011007669381797314,
        0.9995542168617249
      ],
      "scale": [
        0.9999999403953552,
        1.0,
        1.0
      ],
      "translation": [
        0.4958162009716034,
        0.15846708416938782,
        0.024993419647216797
      ]
    },
    {
      "name": "bip_eyeLid_1_R_14",
      "rotation": [
        -0.0076302289962768555,
        0.026687074452638626,
        0.011007669381797314,
        0.9995542168617249
      ],
      "scale": [
        0.9999999403953552,
        1.0,
        1.0
      ],
      "translation": [
        0.4958162009716034,
        0.15846708416938782,
        0.024993419647216797
      ]
    },
    {
      "name": "bip_jaw_17",
      "rotation": [
        0.3908001780509949,
        0.0,
        0.0,
        0.9204755425453186
      ],
      "scale": [
        1.0,
        0.9999999403953552,
        0.9999999403953552
      ],
      "translation": [
        0.08879700303077698,
        -4.821362018585205,
        -0.9740782976150513
      ]
    },
    {
      "children": [
        32
      ],
      "name": "bip_upperArm_R_25",
      "rotation": [
        0.7071068286895752,
        0.7071068286895752,
        -1.7208618601216585e-06,
        8.120284746837569e-07
      ],
      "translation": [
        -7.31220006942749,
        5.005918979644775,
        -0.2828490138053894
      ]
    },
    {
      "children": [
        33
      ],
      "name": "bip_lowerArm_R_24",
      "rotation": [
        -3.040969772795407e-19,
        4.06332958391431e-08,
        1.6940642789214668e-20,
        1.0
      ],
      "translation": [
        -2.9047734642517753e-05,
        -7.48280143737793,
        0.39242810010910034
      ]
    },
    {
      "children": [
        34
      ],
      "name": "bip_hand_R_23",
      "rotation": [
        7.491390192626568e-07,
        5.915956535318401e-06,
        -0.1122513934969902,
        0.9936798214912415
      ],
      "translation": [
        -3.691414895001799e-05,
        -8.471521377563477,
        -0.3924417197704315
      ]
    },
    {
      "children": [
        35
      ],
      "name": "bip_balloon_0_22",
      "rotation": [
        -7.357577942457283e-07,
        -6.034412308508763e-06,
        0.11225157976150513,
        0.9936798214912415
      ],
      "translation": [
        1.2920231819152832,
        1.0946117981802672e-05,
        1.1512885976117104e-05
      ]
    },
    {
      "children": [
        36
      ],
      "name": "bip_balloon_2_21",
      "rotation": [
        9.366465766782583e-15,
        -1.1920892006855865e-07,
        -1.9759023434220762e-15,
        1.0
      ],
      "translation": [
        19.9006404876709,
        -8.807752601569518e-05,
        -6.716022471664473e-05
      ]
    },
    {
      "name": "bip_balloon_1_20",
      "rotation": [
        -4.884494718415677e-12,
        -2.5234805564600116e-17,
        -4.2434317778367037e-16,
        1.0
      ],
      "translation": [
        -6.646122455596924,
        3.084536001551896e-05,
        2.4537061108276248e-05
      ]
    },
    {
      "children": [
        38
      ],
      "name": "bip_hip_R_28",
      "rotation": [
        -1.2852797226514667e-06,
        -1.0,
        -1.5513742255279794e-05,
        7.549790126404332e-08
      ],
      "translation": [
        -4.992000102996826,
        -2.9522249698638916,
        0.007085774093866348
      ]
    },
    {
      "children": [
        39
      ],
      "name": "bip_knee_R_27",
      "rotation": [
        -7.441462268435728e-15,
        -5.790058210664029e-09,
        -4.874586411601767e-12,
        1.0
      ],
      "translation": [
        -2.985871333294199e-06,
        -7.589640140533447,
        -0.42423638701438904
      ]
    },
    {
      "name": "bip_foot_R_26",
      "rotation": [
        0.4220600128173828,
        -4.5269942461345636e-07,
        3.531701509018603e-07,
        0.9065678715705872
      ],
      "scale": [
        1.0,
        0.9999998807907104,
        1.0
      ],
      "translation": [
        -1.934740794240497e-06,
        -6.438721656799316,
        0.5204382538795471
      ]
    }
  ],
  "samplers": [
    {
      "magFilter": 9729,
      "minFilter": 9987,
      "wrapS": 10497,
      "wrapT": 10497
    }
  ],
  "scene": 0,
  "scenes": [
    {
      "name": "Sketchfab_Scene",
      "nodes": [
        0
      ]
    }
  ],
  "skins": [
    {
      "inverseBindMatrices": 10,
      "joints": [
        5,
        9,
        10,
        11,
        12,
        13,
        14,
        15,
        16,
        17,
        18,
        19,
        20,
        21,
        22,
        23,
        24,
        25,
        26,
        27,
        28,
        29,
        30,
        31,
        32,
        33,
        34,
        35,
        36,
        37,
        38,
        39
      ],
      "skeleton": 5
    }
  ],
  "textures": [
    {
      "sampler": 0,
      "source": 0
    },
    {
      "sampler": 0,
      "source": 1
    },
    {
      "sampler": 0,
      "source": 2
    },
    {
      "sampler": 0,
      "source": 3
    },
    {
      "sampler": 0,
      "source": 4
    }
  ]
}
