{
  "accessors": [
    {
      "bufferView": 2,
      "componentType": 5126,
      "count": 768,
      "max": [
        0.17414583265781403,
        -0.015351176261901855,
        3.4251346588134766
      ],
      "min": [
        -0.25734665989875793,
        -0.04878735542297363,
        -4.134308815002441
      ],
      "type": "VEC3"
    },
    {
      "bufferView": 2,
      "byteOffset": 9216,
      "componentType": 5126,
      "count": 768,
      "max": [
        0.9951847791671753,
        0.9951837658882141,
        1.0
      ],
      "min": [
        -0.9951856136322021,
        -0.9951837062835693,
        -1.0
      ],
      "type": "VEC3"
    },
    {
      "bufferView": 1,
      "componentType": 5126,
      "count": 768,
      "max": [
        0.0,
        0.0
      ],
      "min": [
        0.0,
        0.0
      ],
      "type": "VEC2"
    },
    {
      "bufferView": 0,
      "componentType": 5125,
      "count": 1488,
      "type": "SCALAR"
    },
    {
      "bufferView": 2,
      "byteOffset": 18432,
      "componentType": 5126,
      "count": 248,
      "max": [
        2.034341335296631,
        0.36478573083877563,
        4.655820369720459
      ],
      "min": [
        -2.1175413131713867,
        -0.09088295698165894,
        -6.973930358886719
      ],
      "type": "VEC3"
    },
    {
      "bufferView": 2,
      "byteOffset": 21408,
      "componentType": 5126,
      "count": 248,
      "max": [
        0.8892707824707031,
        1.0,
        0.9296339750289917
      ],
      "min": [
        -0.8892707824707031,
        -1.0,
        -0.9383947253227234
      ],
      "type": "VEC3"
    },
    {
      "bufferView": 1,
      "byteOffset": 6144,
      "componentType": 5126,
      "count": 248,
      "max": [
        0.9493212103843689,
        0.9494638442993164
      ],
      "min": [
        0.022801190614700317,
        -0.004553303122520447
      ],
      "type": "VEC2"
    },
    {
      "bufferView": 0,
      "byteOffset": 5952,
      "componentType": 5125,
      "count": 924,
      "type": "SCALAR"
    }
  ],
  "asset": {
    "extras": {
      "author": "Captian_Allen (https://sketchfab.com/Allen_Animations)",
      "license": "CC-BY-4.0 (http://creativecommons.org/licenses/by/4.0/)",
      "source": "https://sketchfab.com/3d-models/bonnies-beta-guitar-fnaf-vr-e62d47f2067c4ded96c16e4695113633",
      "title": "Bonnie's beta Guitar (FNaF VR)"
    },
    "generator": "Sketchfab-12.56.0",
    "version": "2.0"
  },
  "bufferViews": [
    {
      "buffer": 0,
      "byteLength": 9648,
      "name": "floatBufferViews",
      "target": 34963
    },
    {
      "buffer": 0,
      "byteLength": 8128,
      "byteOffset": 9648,
      "byteStride": 8,
      "name": "floatBufferViews",
      "target": 34962
    },
    {
      "buffer": 0,
      "byteLength": 24384,
      "byteOffset": 17776,
      "byteStride": 12,
      "name": "floatBufferViews",
      "target": 34962
    }
  ],
  "buffers": [
    {
      "byteLength": 42160,
      "uri": "scene.bin"
    }
  ],
  "images": [
    {
      "uri": "textures/Guitar_baseColor.png"
    }
  ],
  "materials": [
    {
      "doubleSided": true,
      "name": "Strings",
      "pbrMetallicRoughness": {
        "baseColorFactor": [
          0.0637208,
          0.0637208,
          0.0637208,
          1.0
        ],
        "metallicFactor": 0.0,
        "roughnessFactor": 0.9857515959619332
      }
    },
    {
      "doubleSided": true,
      "name": "Guitar",
      "pbrMetallicRoughness": {
        "baseColorTexture": {
          "index": 0
        },
        "metallicFactor": 0.0,
        "roughnessFactor": 0.8211145618000169
      }
    }
  ],
  "meshes": [
    {
      "name": "Guitar_Strings_0",
      "primitives": [
        {
          "attributes": {
            "NORMAL": 1,
            "POSITION": 0,
            "TEXCOORD_0": 2
          },
          "indices": 3,
          "material": 0,
          "mode": 4
        }
      ]
    },
    {
      "name": "Guitar_Guitar_0",
      "primitives": [
        {
          "attributes": {
            "NORMAL": 5,
            "POSITION": 4,
            "TEXCOORD_0": 6
          },
          "indices": 7,
          "material": 1,
          "mode": 4
        }
      ]
    }
  ],
  "nodes": [
    {
      "children": [
        1
      ],
      "matrix": [
        1.0,
        0.0,
        0.0,
        0.0,
        0.0,
        2.220446049250313e-16,
        -1.0,
        0.0,
        0.0,
        1.0,
        2.220446049250313e-16,
        0.0,
        0.0,
        0.0,
        0.0,
        1.0
      ],
      "name": "Sketchfab_model"
    },
    {
      "children": [
        2
      ],
      "matrix": [
        0.009999999776482582,
        0.0,
        0.0,
        0.0,
        0.0,
        0.0,
        0.009999999776482582,
        0.0,
        0.0,
        -0.009999999776482582,
        0.0,
        0.0,
        0.0,
        0.0,
        0.0,
        1.0
      ],
      "name": "c83763963b364b37bc25e82e8318ea46.fbx"
    },
    {
      "children": [
        3
      ],
      "name": "RootNode"
    },
    {
      "children": [
        4,
        5
      ],
      "matrix": [
        597.9979248046875,
        0.0,
        0.0,
        0.0,
        0.0,
        -9.7426228184085e-05,
        -597.9979248046797,
        0.0,
        0.0,
        597.9979248046797,
        -9.7426228184085e-05,
        0.0,
        8.060073852539063,
        4155.69921875,
        111.97853088378906,
        1.0
      ],
      "name": "Guitar"
    },
    {
      "mesh": 0,
      "name": "Guitar_Strings_0"
    },
    {
      "mesh": 1,
      "name": "Guitar_Guitar_0"
    }
  ],
  "samplers": [
    {
      "magFilter": 9729,
      "minFilter": 9987,
      "wrapS": 10497,
      "wrapT": 10497
    }
  ],
  "scene": 0,
  "scenes": [
    {
      "name": "Sketchfab_Scene",
      "nodes": [
        0
      ]
    }
  ],
  "textures": [
    {
      "sampler": 0,
      "source": 0
    }
  ]
}
