{
  "accessors": [
    {
      "bufferView": 3,
      "componentType": 5126,
      "count": 700,
      "max": [
        0.39883100986480713,
        1.6310374736785889,
        0.3775119483470917
      ],
      "min": [
        -0.39883100986480713,
        0.012099504470825195,
        -0.3775119483470917
      ],
      "type": "VEC3"
    },
    {
      "bufferView": 3,
      "byteOffset": 8400,
      "componentType": 5126,
      "count": 700,
      "max": [
        1.0,
        1.0,
        1.0
      ],
      "min": [
        -1.0,
        -1.0,
        -1.0
      ],
      "type": "VEC3"
    },
    {
      "bufferView": 2,
      "componentType": 5126,
      "count": 700,
      "max": [
        0.9343202710151672,
        0.9698983430862427
      ],
      "min": [
        0.0473426878452301,
        0.0
      ],
      "type": "VEC2"
    },
    {
      "bufferView": 1,
      "componentType": 5125,
      "count": 3336,
      "type": "SCALAR"
    },
    {
      "bufferView": 5,
      "componentType": 5126,
      "count": 32,
      "max": [
        100.0,
        1.4333317044650136e-14,
        1.5099580252808664e-07,
        0.0,
        1.4333317044650136e-14,
        99.99998474121094,
        3.958120498026574e-09,
        0.0,
        3.8941428215366614e-07,
        3.958120498026574e-09,
        99.99998474121094,
        0.0,
        0.24755528569221497,
        0.18574117124080658,
        0.00042474668589420617,
        1.0
      ],
      "min": [
        -1.0,
        -2.1378308845410032e-10,
        -3.8941436741879443e-07,
        0.0,
        -6.783801747748492e-15,
        -0.9999998211860657,
        -0.0014158219564706087,
        0.0,
        -8.742281210061265e-08,
        -0.0014158219564706087,
        -0.9999999403953552,
        0.0,
        -0.24755530059337616,
        -1.415228247642517,
        -0.012532812543213367,
        1.0
      ],
      "type": "MAT4"
    },
    {
      "bufferView": 0,
      "componentType": 5123,
      "count": 700,
      "type": "VEC4"
    },
    {
      "bufferView": 4,
      "componentType": 5126,
      "count": 700,
      "max": [
        1.0,
        0.465753436088562,
        0.13636364042758942,
        0.0
      ],
      "min": [
        0.534246563911438,
        0.0,
        0.0,
        0.0
      ],
      "type": "VEC4"
    },
    {
      "bufferView": 6,
      "componentType": 5126,
      "count": 151,
      "max": [
        10.208333015441895
      ],
      "min": [
        0.0
      ],
      "type": "SCALAR"
    },
    {
      "bufferView": 7,
      "componentType": 5126,
      "count": 151,
      "max": [
        0.24755530059337616,
        -0.08858886361122131,
        -0.012371028773486614
      ],
      "min": [
        0.24755530059337616,
        -0.1203577071428299,
        -0.012371028773486614
      ],
      "type": "VEC3"
    },
    {
      "bufferView": 6,
      "byteOffset": 604,
      "componentType": 5126,
      "count": 141,
      "max": [
        10.208333015441895
      ],
      "min": [
        0.0
      ],
      "type": "SCALAR"
    },
    {
      "bufferView": 8,
      "componentType": 5126,
      "count": 141,
      "max": [
        1.0,
        1.2332529757951721e-24,
        2.646979222347137e-23,
        0.04862997308373451
      ],
      "min": [
        0.9988168478012085,
        -1.2614058437806996e-24,
        0.0,
        -0.045615434646606445
      ],
      "type": "VEC4"
    },
    {
      "bufferView": 6,
      "byteOffset": 1168,
      "componentType": 5126,
      "count": 406,
      "max": [
        10.208333015441895
      ],
      "min": [
        0.0
      ],
      "type": "SCALAR"
    },
    {
      "bufferView": 7,
      "byteOffset": 1812,
      "componentType": 5126,
      "count": 406,
      "max": [
        -0.24755530059337616,
        -0.08858886361122131,
        -0.012371028773486614
      ],
      "min": [
        -0.24755530059337616,
        -0.1203577071428299,
        -0.012371028773486614
      ],
      "type": "VEC3"
    },
    {
      "bufferView": 6,
      "byteOffset": 2792,
      "componentType": 5126,
      "count": 396,
      "max": [
        10.208333015441895
      ],
      "min": [
        0.0
      ],
      "type": "SCALAR"
    },
    {
      "bufferView": 8,
      "byteOffset": 2256,
      "componentType": 5126,
      "count": 396,
      "max": [
        1.0,
        1.2332529757951721e-24,
        2.646979222347137e-23,
        0.04862997308373451
      ],
      "min": [
        0.9988168478012085,
        -1.2614058437806996e-24,
        0.0,
        -0.045615434646606445
      ],
      "type": "VEC4"
    },
    {
      "bufferView": 6,
      "byteOffset": 4376,
      "componentType": 5126,
      "count": 73,
      "max": [
        1.5
      ],
      "min": [
        0.0
      ],
      "type": "SCALAR"
    },
    {
      "bufferView": 7,
      "byteOffset": 6684,
      "componentType": 5126,
      "count": 73,
      "max": [
        0.24755530059337616,
        -0.09068545699119568,
        -0.012371028773486614
      ],
      "min": [
        0.24755530059337616,
        -0.1142764687538147,
        -0.012371028773486614
      ],
      "type": "VEC3"
    },
    {
      "bufferView": 6,
      "byteOffset": 4668,
      "componentType": 5126,
      "count": 73,
      "max": [
        1.5
      ],
      "min": [
        0.0
      ],
      "type": "SCALAR"
    },
    {
      "bufferView": 7,
      "byteOffset": 7560,
      "componentType": 5126,
      "count": 73,
      "max": [
        -0.24755530059337616,
        -0.09068545699119568,
        -0.012371028773486614
      ],
      "min": [
        -0.24755530059337616,
        -0.1142764687538147,
        -0.012371028773486614
      ],
      "type": "VEC3"
    }
  ],
  "animations": [
    {
      "channels": [
        {
          "sampler": 0,
          "target": {
            "node": 37,
            "path": "translation"
          }
        },
        {
          "sampler": 1,
          "target": {
            "node": 37,
            "path": "rotation"
          }
        },
        {
          "sampler": 2,
          "target": {
            "node": 39,
            "path": "translation"
          }
        },
        {
          "sampler": 3,
          "target": {
            "node": 39,
            "path": "rotation"
          }
        }
      ],
      "name": "Armature|Idle",
      "samplers": [
        {
          "input": 7,
          "interpolation": "LINEAR",
          "output": 8
        },
        {
          "input": 9,
          "interpolation": "LINEAR",
          "output": 10
        },
        {
          "input": 11,
          "interpolation": "LINEAR",
          "output": 12
        },
        {
          "input": 13,
          "interpolation": "LINEAR",
          "output": 14
        }
      ]
    },
    {
      "channels": [
        {
          "sampler": 0,
          "target": {
            "node": 37,
            "path": "translation"
          }
        },
        {
          "sampler": 1,
          "target": {
            "node": 39,
            "path": "translation"
          }
        }
      ],
      "name": "Armature|Move",
      "samplers": [
        {
          "input": 15,
          "interpolation": "LINEAR",
          "output": 16
        },
        {
          "input": 17,
          "interpolation": "LINEAR",
          "output": 18
        }
      ]
    }
  ],
  "asset": {
    "extras": {
      "author": "J3FF 5HOP (https://sketchfab.com/J3FF_5HOP)",
      "license": "CC-BY-4.0 (http://creativecommons.org/licenses/by/4.0/)",
      "source": "https://sketchfab.com/3d-models/low-poly-wet-floor-sign-912e418a060544ccb892ad3528ca38cc",
      "title": "Low Poly Wet Floor Sign"
    },
    "generator": "Sketchfab-15.34.0",
    "version": "2.0"
  },
  "bufferViews": [
    {
      "buffer": 0,
      "byteLength": 5600,
      "byteStride": 8,
      "name": "shortBufferViews",
      "target": 34962
    },
    {
      "buffer": 0,
      "byteLength": 13344,
      "byteOffset": 5600,
      "name": "floatBufferViews",
      "target": 34963
    },
    {
      "buffer": 0,
      "byteLength": 5600,
      "byteOffset": 18944,
      "byteStride": 8,
      "name": "floatBufferViews",
      "target": 34962
    },
    {
      "buffer": 0,
      "byteLength": 16800,
      "byteOffset": 24544,
      "byteStride": 12,
      "name": "floatBufferViews",
      "target": 34962
    },
    {
      "buffer": 0,
      "byteLength": 11200,
      "byteOffset": 41344,
      "byteStride": 16,
      "name": "floatBufferViews",
      "target": 34962
    },
    {
      "buffer": 0,
      "byteLength": 2048,
      "byteOffset": 52544,
      "name": "floatBufferViews"
    },
    {
      "buffer": 0,
      "byteLength": 4960,
      "byteOffset": 54592,
      "name": "floatBufferViews"
    },
    {
      "buffer": 0,
      "byteLength": 8436,
      "byteOffset": 59552,
      "byteStride": 12,
      "name": "floatBufferViews"
    },
    {
      "buffer": 0,
      "byteLength": 8592,
      "byteOffset": 67988,
      "byteStride": 16,
      "name": "floatBufferViews"
    }
  ],
  "buffers": [
    {
      "byteLength": 76580,
      "uri": "scene.bin"
    }
  ],
  "images": [
    {
      "uri": "textures/PatPat_baseColor.png"
    },
    {
      "uri": "textures/PatPat_emissive.png"
    }
  ],
  "materials": [
    {
      "doubleSided": true,
      "emissiveFactor": [
        1.0,
        1.0,
        1.0
      ],
      "emissiveTexture": {
        "index": 1
      },
      "name": "PatPat",
      "pbrMetallicRoughness": {
        "baseColorTexture": {
          "index": 0
        },
        "metallicFactor": 0.0,
        "roughnessFactor": 0.8211145618000169
      }
    }
  ],
  "meshes": [
    {
      "name": "Cube_PatPat_0",
      "primitives": [
        {
          "attributes": {
            "JOINTS_0": 5,
            "NORMAL": 1,
            "POSITION": 0,
            "TEXCOORD_0": 2,
            "TEXCOORD_1": 2,
            "WEIGHTS_0": 6
          },
          "indices": 3,
          "material": 0,
          "mode": 4
        }
      ]
    }
  ],
  "nodes": [
    {
      "children": [
        1
      ],
      "matrix": [
        1.0,
        0.0,
        0.0,
        0.0,
        0.0,
        2.220446049250313e-16,
        -1.0,
        0.0,
        0.0,
        1.0,
        2.220446049250313e-16,
        0.0,
        0.0,
        0.0,
        0.0,
        1.0
      ],
      "name": "Sketchfab_model"
    },
    {
      "children": [
        2
      ],
      "matrix": [
        0.009999999776482582,
        0.0,
        0.0,
        0.0,
        0.0,
        0.0,
        0.009999999776482582,
        0.0,
        0.0,
        -0.009999999776482582,
        0.0,
        0.0,
        0.0,
        0.0,
        0.0,
        1.0
      ],
      "name": "lowPolyPatPat.fbx"
    },
    {
      "children": [
        3
      ],
      "name": "Object_2"
    },
    {
      "children": [
        4,
        5
      ],
      "name": "RootNode"
    },
    {
      "name": "Cube",
      "rotation": [
        5.338507591545749e-08,
        0.7071068286895752,
        0.7071067690849304,
        -5.338507946817117e-08
      ],
      "scale": [
        100.0,
        100.0,
        100.0
      ],
      "translation": [
        0.0,
        60.000003814697266,
        0.0
      ]
    },
    {
      "children": [
        6
      ],
      "name": "Armature",
      "rotation": [
        5.338507591545749e-08,
        0.7071068286895752,
        0.7071067690849304,
        -5.338507946817117e-08
      ],
      "scale": [
        100.0,
        100.0,
        100.0
      ]
    },
    {
      "children": [
        7,
        9,
        8
      ],
      "name": "Object_6"
    },
    {
      "children": [
        10
      ],
      "name": "_rootJoint"
    },
    {
      "matrix": [
        -100.0,
        1.224646799147353e-14,
        1.5099580195963277e-05,
        0.0,
        1.5099578388261643e-05,
        -6.411787571900852e-09,
        99.99998802813316,
        0.0,
        1.3214619531758194e-14,
        99.999988028147,
        6.411787571899744e-09,
        0.0,
        4.782086035554172e-16,
        60.000000699972865,
        -3.780354251858853e-09,
        1.0
      ],
      "name": "Object_8"
    },
    {
      "mesh": 0,
      "name": "Object_9",
      "skin": 0
    },
    {
      "children": [
        11,
        29,
        33,
        37,
        39
      ],
      "name": "Hips_01",
      "rotation": [
        0.7076072096824646,
        -1.1148277456531857e-30,
        1.1164073279420467e-30,
        0.7066060304641724
      ],
      "translation": [
        -3.1554436208840472e-30,
        -8.49994421514566e-08,
        0.3012419641017914
      ]
    },
    {
      "children": [
        12
      ],
      "name": "Spine_02",
      "rotation": [
        -0.07443628460168839,
        1.1887858164527643e-07,
        -8.873494827810191e-09,
        0.9972257614135742
      ],
      "scale": [
        1.0,
        1.0,
        0.9999999403953552
      ],
      "translation": [
        -3.8941329725330027e-26,
        0.6438729166984558,
        -2.9103830456733704e-11
      ]
    },
    {
      "children": [
        13,
        19,
        24
      ],
      "name": "Chest_03",
      "rotation": [
        0.07373031228780746,
        -1.1888484152677847e-07,
        8.789336369829925e-09,
        0.9972782135009766
      ],
      "scale": [
        1.0,
        1.0000001192092896,
        1.0
      ],
      "translation": [
        1.2750014260522191e-15,
        0.006198870483785868,
        -5.347743581296527e-09
      ]
    },
    {
      "children": [
        14
      ],
      "name": "Neck_04",
      "rotation": [
        -7.450580596923828e-09,
        1.1920930376163597e-07,
        -8.881783138210068e-16,
        1.0
      ],
      "translation": [
        -9.466330862652142e-29,
        0.0059490203857421875,
        0.0
      ]
    },
    {
      "children": [
        15,
        17
      ],
      "name": "Head_05",
      "rotation": [
        -2.220444196365741e-16,
        2.6469779601696886e-23,
        -5.293955920339377e-23,
        1.0
      ],
      "translation": [
        2.491503699387959e-22,
        0.21938461065292358,
        -1.0450124991148897e-15
      ]
    },
    {
      "children": [
        16
      ],
      "name": "Ear R_06",
      "rotation": [
        -2.183756059833524e-22,
        -2.384185791015625e-07,
        3.1763735522036263e-22,
        1.0
      ],
      "translation": [
        0.21189384162425995,
        0.2398909330368042,
        5.147478887579382e-08
      ]
    },
    {
      "name": "Ear R_end_024",
      "rotation": [
        6.617444900424222e-24,
        6.617444900424222e-24,
        -8.67746995743113e-30,
        1.0
      ],
      "translation": [
        0.0,
        0.2064896821975708,
        -2.6469779601696886e-23
      ]
    },
    {
      "children": [
        18
      ],
      "name": "Ear L_07",
      "rotation": [
        2.0514079191315086e-22,
        2.6469779601696886e-23,
        -5.605193857299268e-45,
        1.0
      ],
      "translation": [
        -0.21189384162425995,
        0.2398909330368042,
        -4.956405419420662e-08
      ]
    },
    {
      "name": "Ear L_end_025",
      "rotation": [
        -6.617444900424222e-24,
        -2.6469779601696886e-23,
        -0.0,
        1.0
      ],
      "translation": [
        2.7755575615628914e-17,
        0.2064896821975708,
        5.293955920339377e-23
      ]
    },
    {
      "children": [
        20
      ],
      "name": "Shoulder R_08",
      "rotation": [
        -0.5252463221549988,
        -0.4767875373363495,
        -0.48014894127845764,
        0.5159912109375
      ],
      "scale": [
        0.9999999403953552,
        0.9999997615814209,
        1.0
      ],
      "translation": [
        0.08582145720720291,
        0.060531437397003174,
        0.011709759011864662
      ]
    },
    {
      "children": [
        21
      ],
      "name": "R Upperarm_09",
      "rotation": [
        0.0027328189462423325,
        -0.00021356878278311342,
        -0.05605089291930199,
        0.9984241724014282
      ],
      "translation": [
        -0.007803627755492926,
        0.05089886114001274,
        -0.05467389523983002
      ]
    },
    {
      "children": [
        22
      ],
      "name": "R Forearm_010",
      "rotation": [
        0.0028628772124648094,
        0.002179366536438465,
        0.11101390421390533,
        0.9938124418258667
      ],
      "scale": [
        1.0,
        0.9999999403953552,
        1.0
      ],
      "translation": [
        4.656612873077393e-10,
        0.1633952111005783,
        1.0806979844346642e-07
      ]
    },
    {
      "children": [
        23
      ],
      "name": "R Hand_011",
      "rotation": [
        0.018428804352879524,
        0.015093778260052204,
        0.03582347184419632,
        0.9990742802619934
      ],
      "scale": [
        0.9999999403953552,
        1.0,
        0.9999999403953552
      ],
      "translation": [
        -9.313225746154785e-09,
        0.1319669485092163,
        -8.570350473746657e-08
      ]
    },
    {
      "name": "R Hand_end_026",
      "rotation": [
        8.673617379884035e-18,
        6.938893903907228e-18,
        2.7755575615628914e-17,
        1.0
      ],
      "translation": [
        0.0,
        0.06917598843574524,
        1.1102230246251565e-16
      ]
    },
    {
      "children": [
        25
      ],
      "name": "Shoulder L_012",
      "rotation": [
        -0.5252463221549988,
        0.4767875373363495,
        0.48014894127845764,
        0.5159912109375
      ],
      "scale": [
        0.9999999403953552,
        0.9999997615814209,
        1.0
      ],
      "translation": [
        -0.08582145720720291,
        0.060531437397003174,
        0.011709759011864662
      ]
    },
    {
      "children": [
        26
      ],
      "name": "L Upperarm_013",
      "rotation": [
        0.0027328189462423325,
        0.00021356878278311342,
        0.05605089291930199,
        0.9984241724014282
      ],
      "translation": [
        0.007803627755492926,
        0.05089886114001274,
        -0.05467389523983002
      ]
    },
    {
      "children": [
        27
      ],
      "name": "L Forearm_014",
      "rotation": [
        0.0028628772124648094,
        -0.002179366536438465,
        -0.11101390421390533,
        0.9938124418258667
      ],
      "scale": [
        1.0,
        0.9999999403953552,
        1.0
      ],
      "translation": [
        -4.656612873077393e-10,
        0.1633952111005783,
        1.0806979844346642e-07
      ]
    },
    {
      "children": [
        28
      ],
      "name": "L Hand_015",
      "rotation": [
        0.018428804352879524,
        -0.015093778260052204,
        -0.03582347184419632,
        0.9990742802619934
      ],
      "scale": [
        0.9999999403953552,
        1.0,
        0.9999999403953552
      ],
      "translation": [
        9.313225746154785e-09,
        0.1319669485092163,
        -8.570350473746657e-08
      ]
    },
    {
      "name": "L Hand_end_027",
      "rotation": [
        -1.734723475976807e-18,
        3.469446951953614e-18,
        6.018531076210112e-36,
        1.0
      ],
      "translation": [
        0.0,
        0.06917598843574524,
        0.0
      ]
    },
    {
      "children": [
        30
      ],
      "name": "Thigh R_016",
      "rotation": [
        0.998153567314148,
        0.018458770588040352,
        0.04002363979816437,
        -0.04179760441184044
      ],
      "scale": [
        1.0000033378601074,
        1.0,
        1.0000139474868774
      ],
      "translation": [
        0.10749825835227966,
        1.2034639951252757e-10,
        -1.2931877790833823e-11
      ]
    },
    {
      "children": [
        31
      ],
      "name": "Shin R_017",
      "rotation": [
        -0.13806308805942535,
        0.021597618237137794,
        0.0011415114859119058,
        0.9901872873306274
      ],
      "scale": [
        1.0,
        0.9999999403953552,
        0.9999999403953552
      ],
      "translation": [
        2.3283064365386963e-09,
        0.1637732833623886,
        1.862645149230957e-09
      ]
    },
    {
      "children": [
        32
      ],
      "name": "Foot R_018",
      "rotation": [
        0.6951256394386292,
        -0.04991763085126877,
        -0.005806559696793556,
        0.7171295881271362
      ],
      "scale": [
        0.9999999403953552,
        0.9999999403953552,
        0.9999998807907104
      ],
      "translation": [
        3.4924596548080444e-09,
        0.11897385865449905,
        1.6298145055770874e-09
      ]
    },
    {
      "name": "Foot R_end_028",
      "rotation": [
        2.7755575615628914e-17,
        1.734723475976807e-18,
        -4.81482486096809e-35,
        1.0
      ],
      "translation": [
        -1.3877787807814457e-17,
        0.08767329901456833,
        1.734723475976807e-18
      ]
    },
    {
      "children": [
        34
      ],
      "name": "Thigh L_019",
      "rotation": [
        0.998153567314148,
        -0.018458770588040352,
        -0.04002363979816437,
        -0.04179760441184044
      ],
      "scale": [
        1.0000033378601074,
        1.0,
        1.0000139474868774
      ],
      "translation": [
        -0.10749825835227966,
        1.2034639951252757e-10,
        -1.2931877790833823e-11
      ]
    },
    {
      "children": [
        35
      ],
      "name": "Shin L_020",
      "rotation": [
        -0.13806308805942535,
        -0.021597618237137794,
        -0.0011415114859119058,
        0.9901872873306274
      ],
      "scale": [
        1.0,
        0.9999999403953552,
        0.9999999403953552
      ],
      "translation": [
        -2.3283064365386963e-09,
        0.1637732833623886,
        1.862645149230957e-09
      ]
    },
    {
      "children": [
        36
      ],
      "name": "Foot L_021",
      "rotation": [
        0.6951256394386292,
        0.04991763085126877,
        0.005806559696793556,
        0.7171295881271362
      ],
      "scale": [
        0.9999999403953552,
        0.9999999403953552,
        0.9999998807907104
      ],
      "translation": [
        -3.4924596548080444e-09,
        0.11897385865449905,
        1.6298145055770874e-09
      ]
    },
    {
      "name": "Foot L_end_00",
      "rotation": [
        -5.115751414778595e-35,
        1.474514954580286e-17,
        3.469446951953614e-18,
        1.0
      ],
      "translation": [
        0.0,
        0.08767329901456833,
        0.0
      ]
    },
    {
      "children": [
        38
      ],
      "name": "Track R_022",
      "rotation": [
        0.9999997615814209,
        1.6479877466818386e-26,
        1.3234904000344737e-23,
        0.0007079401984810829
      ],
      "translation": [
        0.24755530059337616,
        -0.1142764687538147,
        -0.012371028773486614
      ]
    },
    {
      "name": "Track R_end_029",
      "rotation": [
        1.9852334701272664e-23,
        -0.0,
        -7.888609052210118e-31,
        1.0
      ],
      "translation": [
        0.0,
        0.16307009756565094,
        -1.734723475976807e-18
      ]
    },
    {
      "children": [
        40
      ],
      "name": "Track L_023",
      "rotation": [
        0.9999997615814209,
        1.6479877466818386e-26,
        1.3234904000344737e-23,
        0.0007079401984810829
      ],
      "translation": [
        -0.24755530059337616,
        -0.1142764687538147,
        -0.012371028773486614
      ]
    },
    {
      "name": "Track L_end_030",
      "rotation": [
        1.9852334701272664e-23,
        -0.0,
        -7.888609052210118e-31,
        1.0
      ],
      "translation": [
        -2.7755575615628914e-17,
        0.16307009756565094,
        0.0
      ]
    }
  ],
  "samplers": [
    {
      "magFilter": 9729,
      "minFilter": 9987,
      "wrapS": 10497,
      "wrapT": 10497
    }
  ],
  "scene": 0,
  "scenes": [
    {
      "name": "Sketchfab_Scene",
      "nodes": [
        0
      ]
    }
  ],
  "skins": [
    {
      "inverseBindMatrices": 4,
      "joints": [
        7,
        10,
        11,
        12,
        13,
        14,
        15,
        16,
        17,
        18,
        19,
        20,
        21,
        22,
        23,
        24,
        25,
        26,
        27,
        28,
        29,
        30,
        31,
        32,
        33,
        34,
        35,
        36,
        37,
        38,
        39,
        40
      ],
      "skeleton": 7
    }
  ],
  "textures": [
    {
      "sampler": 0,
      "source": 0
    },
    {
      "sampler": 0,
      "source": 1
    }
  ]
}
